# xmcd CD database file
#
# Track frame offsets:
#	150
#	18585
#	36075
#	52515
#
# Disc length: 809 seconds
#
# Revision: 0
# Processed by: cddbd v1.4PL0 Copyright (c) Steve Scherf et al.
# Submitted via: CDex 1.50
#
DISCID=23032704
DTITLE=micah nightingale - micah nightingale and the cranes
DYEAR=2000
DGENRE=Country
TTITLE0=shotgun out
TTITLE1=working for laban
TTITLE2=ride your ride
TTITLE3=anyone who can move me
EXTD=YEAR: 2000
EXTT0=
EXTT1=
EXTT2=
EXTT3=
PLAYORDER=
